<?xml version="1.0" encoding="utf-8"?>
<!-- Generator: Adobe Illustrator 16.0.0, SVG Export Plug-In . SVG Version: 6.00 Build 0)  -->
<!DOCTYPE svg PUBLIC "-//W3C//DTD SVG 1.1//EN" "http://www.w3.org/Graphics/SVG/1.1/DTD/svg11.dtd">
<svg version="1.1" id="Capa_1" xmlns="http://www.w3.org/2000/svg" xmlns:xlink="http://www.w3.org/1999/xlink" x="0px" y="0px"
	 width="266px" height="254px" viewBox="0 0 266 254" enable-background="new 0 0 266 254" xml:space="preserve">
<g>
	<g>
		<path d="M126.699,148.017V80.595H67.61c-5.746,0-10.403,4.664-10.403,10.404v57.018H126.699z"/>
		<path d="M57.207,158.407v59.478c0,5.727,4.657,10.404,10.403,10.404h59.088v-69.882H57.207z"/>
		<path d="M210.613,148.017V90.999c0-5.74-4.664-10.404-10.404-10.404h-59.108v67.421H210.613z"/>
		<path d="M141.101,158.407v69.882h59.108c5.74,0,10.404-4.678,10.404-10.404v-59.478H141.101z"/>
	</g>
	<path d="M129.938,64.963c-0.054-0.054-0.101-0.094-0.141-0.175c-5.847-12.299-13.025-24.006-23.63-32.851
		c-5.168-4.314-11.311-9.234-18.388-9.396c-8.32-0.188-16.432,4.92-18.73,13.24c-1.68,6.116-1.728,13.576,2.48,18.791
		c4.637,5.78,12.473,7.729,19.543,8.495c13.515,1.492,26.621,3.092,39.961,5.619C130.845,67.396,130.449,66.159,129.938,64.963z
		 M80.259,42.664c-0.934-3.105,0.107-6.452,4.429-6.667c6.875-0.336,11.983,6.371,16.943,10.107
		c4.751,3.589,9.543,7.178,13.771,11.398c-2.017-1.169-4.49-0.981-6.708-1.465c-3.844-0.833-7.628-1.868-11.405-2.984
		c-5.182-1.532-11.52-3.064-15.276-7.245C81.207,44.908,80.602,43.807,80.259,42.664z"/>
	<path d="M138.083,68.687c13.348-2.527,26.446-4.127,39.962-5.619c7.069-0.766,14.906-2.715,19.55-8.495
		c4.2-5.215,4.16-12.675,2.474-18.791c-2.292-8.32-10.404-13.428-18.73-13.24c-7.07,0.161-13.22,5.081-18.381,9.396
		c-10.605,8.845-17.79,20.552-23.637,32.851c-0.034,0.081-0.088,0.121-0.135,0.175C138.668,66.159,138.271,67.396,138.083,68.687z
		 M187.104,45.809c-3.75,4.18-10.088,5.712-15.27,7.245c-3.776,1.116-7.566,2.151-11.411,2.984c-2.218,0.483-4.69,0.295-6.7,1.465
		c4.227-4.221,9.012-7.81,13.764-11.398c4.967-3.736,10.074-10.443,16.943-10.107c4.32,0.215,5.369,3.562,4.428,6.667
		C188.521,43.807,187.91,44.908,187.104,45.809z"/>
	<path d="M123.412,72.355c-9.624,1.425-19.382,1.586-29.067,0.646c-10.316-1.008-18.898-5.269-28.516-8.535
		c-12.211-4.167-31.372-0.215-40.344,9.422c-8.569,9.208-11.754,21.99-10.592,34.329c1.794,19.087,17.689,35.217,4.174,53.806
		c-0.363,0.497-0.242,1.587,0.611,1.345c7.749-2.191,13.374-7.231,16.546-13.979c0.491,6.075-1.882,12.931-3.878,17.743
		c-0.222,0.537-0.074,1.155,0.564,1.236c10.545,1.277,14.208-13.469,14.254-21.439c0.034-6.666-2.702-13.024-5.686-18.844
		c-4.953-9.705-7.876-17.084-5.396-28.12c2.218-9.906,7.715-18.28,16.714-23.132c8.388-4.53,18.549-2.406,27.434-0.847
		c15.296,2.688,29.335,3.656,44.041-1.438C123.937,73.834,123.634,73.108,123.412,72.355z"/>
	<path d="M144.596,72.355c9.631,1.425,19.383,1.586,29.066,0.646c10.316-1.008,18.898-5.269,28.517-8.535
		c12.211-4.167,31.372-0.215,40.344,9.422c8.569,9.208,11.755,21.99,10.592,34.329c-1.794,19.087-17.695,35.217-4.181,53.806
		c0.37,0.497,0.249,1.587-0.611,1.345c-7.749-2.191-13.367-7.231-16.533-13.979c-0.497,6.075,1.875,12.931,3.879,17.743
		c0.215,0.537,0.066,1.155-0.572,1.236c-10.544,1.277-14.207-13.469-14.254-21.439c-0.033-6.666,2.708-13.024,5.686-18.844
		c4.953-9.705,7.877-17.084,5.396-28.12c-2.218-9.906-7.722-18.28-16.714-23.132c-8.388-4.53-18.55-2.406-27.435-0.847
		c-15.296,2.688-29.335,3.656-44.04-1.438C144.071,73.834,144.374,73.108,144.596,72.355z"/>
	<path d="M138.971,77.517c0,2.783-2.271,5.054-5.061,5.054l0,0c-2.795,0-5.067-2.271-5.067-5.054l0,0
		c0-2.809,2.272-5.081,5.067-5.081l0,0C136.699,72.437,138.971,74.708,138.971,77.517L138.971,77.517z"/>
</g>
</svg>
