<?xml version="1.0" encoding="utf-8"?>
<!-- Generator: Adobe Illustrator 16.0.0, SVG Export Plug-In . SVG Version: 6.00 Build 0)  -->
<!DOCTYPE svg PUBLIC "-//W3C//DTD SVG 1.1//EN" "http://www.w3.org/Graphics/SVG/1.1/DTD/svg11.dtd">
<svg version="1.1" id="Capa_1" xmlns="http://www.w3.org/2000/svg" xmlns:xlink="http://www.w3.org/1999/xlink" x="0px" y="0px"
	 width="396px" height="221px" viewBox="0 0 396 221" enable-background="new 0 0 396 221" xml:space="preserve">
<g>
	<g>
		<g>
			<g>
				<g>
					<polygon fill="#FFBE00" points="185.612,175.545 185.612,190.305 200.061,183.393 					"/>
				</g>
				<g>
					<path fill="#FFBE00" d="M341.924,132.492c0,0-10.43,18.879-13.307,23.122c-6.994,10.313-11.985,6.368-17.853,0.856
						c-2.951-2.771-14.601-15.47-19.936-20.547c-6.978-6.639-17.087-11.009-21.948-13.272c0.009,0.039,0.021,0.075,0.02,0.116
						c-0.154,4.934-6.738,8.799-14.987,8.799s-14.833-3.865-14.987-8.799c-0.002-0.041,0.011-0.078,0.02-0.116
						c-4.618,2.15-14.368,6.747-20.938,12.374l-20.416,16.823l13.287,11.778v25.641l-0.635-0.345v26.78h87.338V178.52l6.455,6.103
						c10.257,10.266,28.172,9.496,38.201-5.732c10.029-15.228,20.517-33.997,20.517-33.997L341.924,132.492z"/>
				</g>
			</g>
			<g>
				<path fill="#060405" d="M299.842,62.777c-5.099-32.803-28.944-41.488-46.454-41.488c-17.509,0-41.354,8.685-46.454,41.488
					c-5.132,33.013-9.036,57.988-9.036,57.988h12.836l2.465-20.964l1.413,20.964h7.835l1.255-11.235l1.681,11.235h14.529v-7.276
					c-4.224-1.513-8.479-3.948-11.797-7.83c-2.987-3.496-5.258-9.468-6.786-16.715c-1.995,1.071-7.794,3.377-11.752-3.311
					c-4.631-7.824,2.08-17.007,9.495-12.526c1.008-0.087,8.145-1.205,11.724-15.458c0,0,21.73,14.15,43.631-7.044
					c0,0,3.941,18.079,14.088,23.121l0,0c7.509-4.828,14.727,3.999,10.046,11.907c-4.848,8.19-11.94,2.748-11.94,2.748l0.001-0.006
					c-1.529,7.507-3.844,13.696-6.911,17.285c-3.316,3.881-7.572,6.317-11.796,7.83v7.276h12.506l1.287-12.351l1.756,12.351h10.558
					l1.66-25.011l2.609,25.011h10.588C308.878,120.765,304.974,95.79,299.842,62.777z"/>
			</g>
			<g>
				<path fill="#060405" d="M298.304,43.954c2.148-0.676,4.072-1.846,5.575-3.557c5.375-6.119,3.447-16.601-4.307-23.412
					c-7.754-6.811-18.397-7.371-23.772-1.251c-1.327,1.51-2.204,3.288-2.663,5.209C282.223,24.301,292.096,30.943,298.304,43.954z"
					/>
			</g>
			<g>
				<path fill="#060405" d="M208.473,43.954c-2.148-0.676-4.072-1.846-5.575-3.557c-5.375-6.119-3.447-16.601,4.307-23.412
					c7.754-6.811,18.397-7.371,23.772-1.251c1.326,1.51,2.204,3.288,2.663,5.209C224.554,24.301,214.681,30.943,208.473,43.954z"/>
			</g>
			<g>
				<g>
					<g>
						
							<ellipse transform="matrix(-0.986 0.167 -0.167 -0.986 557.5195 121.4785)" fill="#FF5828" cx="273.652" cy="84.179" rx="7.595" ry="3.865"/>
					</g>
				</g>
				<g>
					<g>
						
							<ellipse transform="matrix(0.986 0.167 -0.167 0.986 17.3458 -37.9236)" fill="#FF5828" cx="234.174" cy="84.179" rx="7.595" ry="3.865"/>
					</g>
				</g>
			</g>
		</g>
		<g>
			<g>
				<g>
					<path fill="#060405" d="M216.179,91.29c-0.385,0-0.782-0.031-1.19-0.103c-2.432-0.424-4.542-2.122-6.271-5.044
						c-3.009-5.083-1.697-10.523,1.153-13.27c2.643-2.548,6.239-2.772,9.62-0.598c0.465,0.299,0.599,0.917,0.3,1.382
						c-0.297,0.464-0.916,0.599-1.382,0.3c-2.586-1.664-5.19-1.533-7.15,0.355c-2.284,2.202-3.3,6.622-0.82,10.812
						c1.414,2.389,3.055,3.764,4.877,4.089c2.503,0.451,4.633-1.254,4.654-1.271c0.429-0.348,1.058-0.286,1.406,0.14
						c0.35,0.426,0.29,1.053-0.135,1.403C221.141,89.569,219.022,91.29,216.179,91.29z"/>
				</g>
				<g>
					<path fill="#060405" d="M214.72,79.503c-0.055,0-0.111-0.004-0.168-0.014c-0.544-0.092-0.911-0.608-0.819-1.152
						c0.143-0.842,0.452-1.553,0.926-2.125c-1.196,0.784-1.785,2.247-1.792,2.264c-0.201,0.513-0.777,0.768-1.294,0.567
						c-0.514-0.2-0.769-0.776-0.57-1.29c0.045-0.119,1.148-2.913,3.71-3.777c1.554-0.524,3.247-0.233,5.034,0.866
						c0.409,0.251,0.582,0.757,0.412,1.206c-0.171,0.45-0.64,0.711-1.107,0.631c-0.294-0.049-2.938-0.414-3.346,1.991
						C215.622,79.158,215.199,79.503,214.72,79.503z"/>
				</g>
			</g>
			<g>
				<g>
					<path fill="#060405" d="M291.959,91.29c-2.844,0-4.962-1.72-5.062-1.803c-0.426-0.352-0.486-0.982-0.134-1.408
						c0.35-0.424,0.978-0.487,1.405-0.136c0.04,0.032,2.169,1.716,4.654,1.271c1.822-0.325,3.463-1.701,4.877-4.089
						c2.479-4.189,1.464-8.61-0.821-10.812c-1.959-1.89-4.566-2.018-7.149-0.355c-0.465,0.299-1.084,0.164-1.382-0.3
						c-0.299-0.465-0.165-1.083,0.3-1.382c3.381-2.173,6.977-1.948,9.619,0.598c2.851,2.747,4.163,8.187,1.154,13.271
						c-1.729,2.923-3.84,4.62-6.271,5.044C292.741,91.258,292.344,91.29,291.959,91.29z"/>
				</g>
				<g>
					<path fill="#060405" d="M293.417,79.503c-0.479,0-0.902-0.345-0.985-0.833c-0.405-2.405-3.047-2.041-3.35-1.991
						c-0.475,0.08-0.935-0.189-1.102-0.636c-0.167-0.448,0.004-0.951,0.411-1.202c1.786-1.099,3.48-1.39,5.034-0.866
						c2.562,0.865,3.665,3.659,3.71,3.777c0.199,0.515-0.058,1.094-0.573,1.293c-0.512,0.196-1.091-0.056-1.291-0.57l0,0
						c-0.007-0.018-0.596-1.481-1.794-2.266c0.474,0.572,0.784,1.284,0.927,2.126c0.092,0.544-0.275,1.061-0.819,1.152
						C293.528,79.499,293.472,79.503,293.417,79.503z"/>
				</g>
			</g>
			<g>
				<path fill="#060405" d="M253.913,116.847c-5.277,0-18.431-1.027-26.558-10.538c-4.744-5.551-8.039-17.405-9.043-32.522
					c-0.036-0.551,0.381-1.028,0.932-1.064c0.546-0.051,1.027,0.38,1.064,0.931c0.976,14.697,4.098,26.125,8.567,31.356
					c7.8,9.127,21.136,9.837,25.037,9.837s17.237-0.709,25.036-9.837c4.47-5.23,7.593-16.657,8.567-31.35
					c0.037-0.551,0.519-0.965,1.064-0.932c0.551,0.037,0.968,0.513,0.932,1.064c-1.004,15.114-4.299,26.966-9.043,32.516
					C272.344,115.82,259.19,116.847,253.913,116.847z"/>
			</g>
			<g>
				<path fill="#060405" d="M262.173,70.279c-0.356,0-0.701-0.19-0.882-0.526c-0.262-0.486-0.079-1.093,0.407-1.354
					c6.233-3.352,11.736-0.116,11.969,0.024c0.473,0.285,0.625,0.9,0.34,1.373c-0.284,0.472-0.896,0.625-1.37,0.342l0,0
					c-0.193-0.115-4.783-2.777-9.991,0.023C262.495,70.241,262.333,70.279,262.173,70.279z"/>
			</g>
			<g>
				<path fill="#060405" d="M245.145,70.279c-0.16,0-0.322-0.038-0.473-0.119c-5.206-2.8-9.799-0.138-9.991-0.023
					c-0.474,0.282-1.087,0.127-1.37-0.345c-0.283-0.473-0.132-1.084,0.34-1.369c0.232-0.139,5.733-3.378,11.969-0.024
					c0.486,0.262,0.669,0.868,0.407,1.354C245.846,70.089,245.501,70.279,245.145,70.279z"/>
			</g>
			<g>
				<path fill="#060405" d="M243.436,75.448c-0.231,0-0.463-0.079-0.651-0.241c-3.094-2.658-6.126-0.11-6.254,0
					c-0.417,0.358-1.048,0.313-1.41-0.107c-0.359-0.419-0.312-1.05,0.107-1.41c1.531-1.316,5.355-3.009,8.859,0
					c0.419,0.36,0.467,0.991,0.107,1.41C243.996,75.33,243.717,75.448,243.436,75.448z"/>
			</g>
			<g>
				<path fill="#060405" d="M271.439,75.448c-0.23,0-0.461-0.079-0.649-0.239c-0.142-0.12-3.199-2.628-6.256-0.002
					c-0.417,0.358-1.049,0.313-1.41-0.107c-0.359-0.419-0.312-1.05,0.107-1.41c3.503-3.009,7.328-1.316,8.859,0
					c0.419,0.36,0.467,0.991,0.107,1.41C272,75.33,271.721,75.448,271.439,75.448z"/>
			</g>
			<g>
				<path fill="#060405" d="M253.229,85.775c-1.308,0-2.515-0.568-3.591-1.689c-0.382-0.398-0.369-1.032,0.029-1.414
					c0.399-0.382,1.032-0.369,1.414,0.029c0.693,0.723,1.396,1.074,2.148,1.074c0.001,0,0.002,0,0.003,0
					c1.346-0.002,2.445-1.139,2.456-1.151c0.382-0.399,1.014-0.416,1.412-0.039c0.4,0.377,0.422,1.006,0.046,1.408
					c-0.067,0.072-1.678,1.767-3.889,1.781C253.248,85.775,253.238,85.775,253.229,85.775z"/>
			</g>
			<g>
				<path fill="#060405" d="M253.913,96.901c-5.41,0-7.967-4.565-8.563-6.979c-0.133-0.536,0.195-1.078,0.731-1.21
					c0.536-0.132,1.078,0.195,1.21,0.731c0.056,0.22,1.44,5.458,6.621,5.458c5.2,0,6.727-5.26,6.789-5.484
					c0.147-0.531,0.698-0.845,1.229-0.697c0.531,0.147,0.844,0.694,0.699,1.226C261.975,92.352,259.308,96.901,253.913,96.901z"/>
			</g>
			<g>
				<g>
					<path fill="#060405" d="M267.914,123.191c-0.553,0-1-0.448-1-1v-8.614c0-0.552,0.447-1,1-1s1,0.448,1,1v8.614
						C268.914,122.743,268.467,123.191,267.914,123.191z"/>
				</g>
				<g>
					<path fill="#060405" d="M239.911,123.191c-0.553,0-1-0.448-1-1v-8.614c0-0.552,0.447-1,1-1s1,0.448,1,1v8.614
						C240.911,122.743,240.464,123.191,239.911,123.191z"/>
				</g>
			</g>
			<g>
				<circle fill="#060405" cx="215.579" cy="86.036" r="1.856"/>
			</g>
			<g>
				<circle fill="#060405" cx="291.978" cy="86.036" r="1.856"/>
			</g>
			<g>
				<path fill="#060405" d="M265.399,142.551c-0.237,0-0.471-0.085-0.656-0.246l-10.87-9.449l-12.391,9.488
					c-0.327,0.252-0.775,0.275-1.126,0.063c-9.368-5.67-8.882-16.234-8.856-16.681c0.03-0.551,0.506-0.976,1.053-0.941
					c0.551,0.03,0.973,0.501,0.943,1.052c-0.005,0.096-0.404,9.372,7.323,14.496l12.485-9.561c0.378-0.289,0.905-0.273,1.265,0.039
					l11.01,9.571c2.031-0.955,9.011-4.901,9.595-14.226c0.034-0.552,0.509-0.979,1.061-0.936c0.551,0.035,0.97,0.509,0.936,1.061
					c-0.752,12.001-11.308,16.162-11.414,16.203C265.64,142.529,265.52,142.551,265.399,142.551z"/>
			</g>
			<g>
				<circle fill="#060405" cx="253.913" cy="140.137" r="1.414"/>
			</g>
			<g>
				<circle fill="#060405" cx="253.913" cy="146.339" r="1.414"/>
			</g>
			<g>
				<path fill="#060405" d="M297.582,216.703h-87.338c-0.553,0-1-0.447-1-1v-37.183c0-0.553,0.447-1,1-1s1,0.447,1,1v36.183h85.338
					v-36.183c0-0.399,0.237-0.761,0.604-0.918c0.365-0.16,0.793-0.082,1.082,0.191l6.455,6.103
					c4.792,4.794,11.369,7.143,18.068,6.461c7.393-0.752,14.002-5.02,18.611-12.017c8.692-13.199,17.838-29.257,20.002-33.089
					l-19.106-11.373c-2.136,3.853-10.313,18.549-12.854,22.296c-2.892,4.265-5.71,6.493-8.615,6.815
					c-3.794,0.41-7.112-2.374-10.75-5.791c-1.322-1.242-4.293-4.371-7.732-7.994c-4.333-4.563-9.244-9.736-12.208-12.557
					c-6.302-5.996-15.127-10.069-20.42-12.508c-1.162,4.813-7.739,8.425-15.807,8.425c-8.059,0-14.63-3.603-15.804-8.42
					c-4.698,2.207-13.433,6.483-19.451,11.64l-20.431,16.836c-0.426,0.35-1.056,0.29-1.408-0.137
					c-0.351-0.426-0.29-1.057,0.136-1.408l20.416-16.822c6.801-5.827,16.857-10.51,21.151-12.509
					c0.346-0.161,0.753-0.111,1.051,0.129c0.284,0.23,0.42,0.597,0.355,0.956c0.236,4.283,6.47,7.736,13.983,7.736
					c7.532,0,13.777-3.471,13.984-7.752c-0.043-0.341,0.086-0.696,0.354-0.915c0.297-0.245,0.703-0.315,1.052-0.153l1.217,0.563
					c5.401,2.488,14.441,6.653,20.999,12.892c3,2.855,7.93,8.048,12.279,12.629c3.418,3.602,6.371,6.711,7.651,7.913
					c3.271,3.071,6.211,5.586,9.161,5.261c2.288-0.254,4.636-2.199,7.18-5.949c2.818-4.157,13.154-22.855,13.259-23.045
					c0.131-0.236,0.353-0.41,0.613-0.481c0.26-0.069,0.54-0.032,0.773,0.106l20.831,12.4c0.465,0.277,0.625,0.875,0.361,1.348
					c-0.105,0.188-10.62,18.975-20.555,34.06c-4.945,7.51-12.076,12.094-20.079,12.906c-7.288,0.748-14.467-1.814-19.664-7.017
					l-4.748-4.488v34.861C298.582,216.256,298.135,216.703,297.582,216.703z M239.925,122.72c0,0.007,0,0.015,0.001,0.022
					C239.925,122.735,239.925,122.728,239.925,122.72z"/>
			</g>
			<g>
				<path fill="#060405" d="M298.304,44.954c-0.377,0-0.732-0.214-0.902-0.569c-5.155-10.801-13.436-18.373-24.612-22.504
					c-0.475-0.175-0.743-0.678-0.626-1.17c0.512-2.144,1.483-4.041,2.886-5.637c5.729-6.525,17.028-6,25.183,1.16
					c3.918,3.441,6.547,7.894,7.4,12.536c0.87,4.729-0.195,9.093-3.002,12.288c-1.574,1.792-3.602,3.088-6.026,3.851
					C298.504,44.939,298.403,44.954,298.304,44.954z M274.343,20.331c10.971,4.277,19.196,11.801,24.47,22.385
					c1.714-0.667,3.163-1.667,4.315-2.979c2.393-2.725,3.294-6.492,2.537-10.606c-0.772-4.202-3.171-8.249-6.754-11.395
					c-7.326-6.436-17.356-7.038-22.36-1.343C275.552,17.53,274.812,18.852,274.343,20.331z"/>
			</g>
			<g>
				<path fill="#060405" d="M185.613,191.306c-0.373,0-0.731-0.209-0.902-0.568c-0.239-0.498-0.028-1.096,0.47-1.334l14.448-6.913
					c0.5-0.239,1.096-0.028,1.334,0.471c0.238,0.498,0.027,1.096-0.471,1.334l-14.448,6.913
					C185.905,191.274,185.758,191.306,185.613,191.306z"/>
			</g>
			<g>
				<path fill="#060405" d="M210.244,179.521c-0.553,0-1-0.447-1-1v-9.343c0-0.553,0.447-1,1-1s1,0.447,1,1v9.343
					C211.244,179.073,210.797,179.521,210.244,179.521z"/>
			</g>
			<g>
				<path fill="#060405" d="M297.581,179.521c-0.553,0-1-0.447-1-1v-9.343c0-0.553,0.447-1,1-1s1,0.447,1,1v9.343
					C298.581,179.073,298.134,179.521,297.581,179.521z"/>
			</g>
			<g>
				<path fill="#060405" d="M308.878,121.765H298.29c-0.512,0-0.941-0.387-0.994-0.896l-1.394-13.354l-0.884,13.317
					c-0.035,0.525-0.472,0.934-0.998,0.934h-10.558c-0.498,0-0.92-0.366-0.99-0.859l-0.612-4.311l-0.446,4.274
					c-0.053,0.51-0.482,0.896-0.994,0.896h-12.506c-0.553,0-1-0.448-1-1s0.447-1,1-1h11.604l1.194-11.454
					c0.052-0.502,0.471-0.887,0.976-0.896c0.517-0.004,0.938,0.36,1.009,0.859l1.634,11.491h8.754l1.598-24.078
					c0.034-0.518,0.46-0.924,0.979-0.934c0.555,0.002,0.96,0.38,1.013,0.896l2.517,24.116h8.519
					c-0.823-5.263-4.37-27.979-8.856-56.834c-5.861-37.711-36.282-40.642-45.466-40.642s-39.604,2.931-45.466,40.642
					c-4.486,28.856-8.033,51.571-8.855,56.834h10.778l2.361-20.081c0.061-0.513,0.505-0.911,1.018-0.883
					c0.517,0.013,0.938,0.417,0.974,0.932l1.35,20.032h6.006l1.155-10.346c0.056-0.5,0.474-0.879,0.976-0.889
					c0.483-0.015,0.934,0.355,1.008,0.852l1.553,10.383h13.667c0.553,0,1,0.448,1,1s-0.447,1-1,1h-14.528
					c-0.495,0-0.916-0.362-0.989-0.852l-0.548-3.662l-0.404,3.625c-0.057,0.506-0.484,0.889-0.994,0.889h-7.835
					c-0.526,0-0.962-0.408-0.998-0.933l-0.686-10.17l-1.201,10.219c-0.06,0.504-0.486,0.883-0.993,0.883h-12.836
					c-0.292,0-0.57-0.128-0.76-0.35c-0.19-0.222-0.273-0.516-0.228-0.805c0,0,3.903-24.976,9.035-57.988
					c6.107-39.281,37.856-42.334,47.442-42.334s41.337,3.053,47.442,42.334c5.132,33.012,9.036,57.987,9.036,57.988
					c0.045,0.289-0.038,0.583-0.229,0.805C309.447,121.637,309.17,121.765,308.878,121.765z"/>
			</g>
			<g>
				<path fill="#060405" d="M288.514,74.727c-0.149,0-0.301-0.033-0.444-0.104c-8.703-4.325-12.933-17.418-14.201-22.122
					c-18.888,17.153-37.627,9.183-42.438,6.656c-4.115,14.671-12.12,14.955-12.468,14.959c-0.586-0.011-1.006-0.434-1.014-0.986
					c-0.008-0.549,0.43-1.001,0.978-1.013c0.057-0.003,1.84-0.102,4.025-1.876c2.092-1.697,4.982-5.302,6.874-12.833
					c0.078-0.313,0.304-0.568,0.604-0.687c0.298-0.12,0.64-0.085,0.91,0.092c0.861,0.559,21.344,13.444,42.391-6.925
					c0.261-0.252,0.64-0.342,0.984-0.238c0.348,0.104,0.61,0.39,0.688,0.744c0.039,0.176,3.961,17.67,13.557,22.439
					c0.494,0.246,0.696,0.846,0.45,1.34C289.235,74.523,288.882,74.727,288.514,74.727z"/>
			</g>
			<g>
				<g>
					<path fill="#060405" d="M353.632,119.4c-0.144,0-0.29-0.031-0.429-0.097c-0.499-0.237-0.711-0.834-0.474-1.333
						c0.071-0.15,7.142-15.017,8.428-18.532c0.828-2.264,2.517-3.572,4.023-3.108c0.57,0.176,2.354,1.06,1.347,5.053
						c-0.687,2.719-1.399,6.42-1.894,9.152c2.91-3.518,7.557-9.14,8.599-10.438c1.091-1.357,2.839-1.773,4.068-0.969
						c0.972,0.637,1.605,2.09,0.468,4.259c-1.664,3.172-8.056,15.202-8.056,15.202l-1.766-0.938c0,0,6.388-12.021,8.05-15.192
						c0.481-0.917,0.444-1.502,0.208-1.657c-0.269-0.176-0.907-0.083-1.414,0.549c-1.545,1.924-10.924,13.247-11.018,13.36
						c-0.289,0.349-0.774,0.458-1.185,0.272c-0.411-0.187-0.646-0.626-0.573-1.072c0.014-0.081,1.332-8.102,2.572-13.018
						c0.483-1.916,0.095-2.605,0.003-2.653c-0.19-0.058-1.019,0.418-1.555,1.885c-1.318,3.603-8.208,18.089-8.5,18.704
						C354.364,119.19,354.006,119.4,353.632,119.4z"/>
				</g>
				<g>
					<path fill="#060405" d="M360.384,144.482c-0.162,0-0.326-0.039-0.479-0.123c-0.484-0.266-0.663-0.873-0.397-1.357l2.389-4.371
						c0.063-0.115,0.149-0.217,0.252-0.3c2.4-1.929,9.705-7.796,11.313-12.395c0.183-0.521,0.753-0.795,1.274-0.614
						c0.521,0.182,0.796,0.752,0.614,1.274c-1.762,5.038-9.137,11.035-11.793,13.169l-2.295,4.195
						C361.08,144.294,360.737,144.482,360.384,144.482z"/>
				</g>
				<g>
					<path fill="#060405" d="M344.35,134.937c-0.163,0-0.328-0.04-0.481-0.124c-0.483-0.266-0.66-0.875-0.394-1.358l2.646-4.809
						c0.283-3.056,1.551-7.75,2.581-8.754c1.056-1.03,7.945-4.205,9.589-3.782l0.395,0.101c8.814,2.243,9.177,2.877,9.468,3.388
						c0.398,0.697,0.415,1.928-0.324,2.928c-0.873,1.179-2.969,2.332-8.021,1.33c-0.804,1.121-2.776,3.248-6.079,3.032
						c-0.551-0.036-0.969-0.512-0.933-1.063c0.036-0.551,0.497-0.971,1.063-0.933c3.047,0.205,4.535-2.51,4.597-2.625
						c0.213-0.396,0.669-0.604,1.104-0.507c4.769,1.077,6.209,0.112,6.605-0.353c0.248-0.29,0.273-0.585,0.259-0.74
						c-0.419-0.246-2.035-0.94-8.232-2.517l-0.405-0.104c-0.005,0-0.011,0-0.017,0c-1.004,0-6.821,2.448-7.672,3.278
						c-0.437,0.517-1.738,4.363-2.002,7.699c-0.012,0.141-0.053,0.279-0.121,0.403l-2.749,4.994
						C345.045,134.75,344.702,134.937,344.35,134.937z"/>
				</g>
				<g>
					<path fill="#060405" d="M361.618,131.963c-0.932,0-1.773-0.369-2.318-1.069c-0.691-0.888-0.938-2.446,0.438-4.16
						c1.909-2.376,3.487-4.117,3.554-4.19c0.372-0.41,1.004-0.438,1.413-0.068c0.408,0.372,0.438,1.004,0.067,1.413
						c-0.016,0.018-1.606,1.771-3.476,4.098c-0.54,0.674-0.701,1.316-0.419,1.679c0.228,0.292,0.819,0.447,1.587,0.097
						c2.109-0.965,9.607-7.745,10.254-8.857c0.022-0.057,0.039-0.363-0.207-0.943c-0.41-0.968-1.187-1.865-1.559-2.113
						c-0.557,0.19-2.016,1.416-3.187,2.691c-0.374,0.407-1.006,0.434-1.413,0.06c-0.406-0.374-0.434-1.006-0.06-1.413
						c2.38-2.589,4.16-3.68,5.271-3.261c1.12,0.425,2.405,2.177,2.903,3.547c0.351,0.968,0.349,1.779-0.007,2.412
						c-0.796,1.417-8.647,8.545-11.165,9.695C362.734,131.837,362.161,131.963,361.618,131.963z M371.041,117.826"/>
				</g>
				<g>
					<path fill="#060405" d="M365.154,133.318c-0.262,0-0.496-0.041-0.709-0.123c-1.015-0.389-1.409-1.039-1.561-1.516
						c-0.358-1.128,0.325-2.197,0.404-2.315c0.309-0.46,0.929-0.581,1.388-0.274c0.456,0.305,0.58,0.921,0.279,1.379
						c-0.101,0.158-0.212,0.465-0.165,0.605c0.026,0.079,0.168,0.176,0.369,0.253c0.018,0.003,0.038,0.004,0.06,0.004
						c1.238,0,7.774-4.247,8.506-5.898c0.086-0.368-0.067-0.871-0.387-1.174c-0.265-0.25-0.595-0.32-0.987-0.201
						c-0.531,0.156-1.087-0.142-1.245-0.67c-0.158-0.529,0.142-1.086,0.671-1.246c1.078-0.322,2.148-0.082,2.938,0.666
						c0.841,0.797,1.209,2.033,0.938,3.146c-0.394,1.618-5.215,5.136-7.676,6.427C366.771,133.014,365.864,133.318,365.154,133.318z
						"/>
				</g>
			</g>
			<g>
				<path fill="#060405" d="M208.473,44.954c-0.1,0-0.2-0.015-0.3-0.046c-2.424-0.763-4.452-2.058-6.027-3.851
					c-5.73-6.524-3.757-17.66,4.398-24.824c8.157-7.164,19.454-7.684,25.184-1.16c1.402,1.597,2.373,3.494,2.885,5.637
					c0.117,0.492-0.151,0.995-0.626,1.17c-11.177,4.132-19.458,11.704-24.611,22.504C209.205,44.74,208.85,44.954,208.473,44.954z
					 M220.883,12.486c-4.316,0-9.062,1.774-13.019,5.25c-7.327,6.436-9.219,16.305-4.217,22.001
					c1.153,1.312,2.603,2.312,4.316,2.979c5.272-10.583,13.498-18.107,24.469-22.385c-0.469-1.479-1.209-2.801-2.208-3.938
					C227.924,13.773,224.559,12.486,220.883,12.486z"/>
			</g>
		</g>
		<g>
			<path fill="none" stroke="#060405" stroke-width="2" stroke-linecap="round" stroke-linejoin="round" stroke-miterlimit="10" d="
				M297.582,178.52"/>
		</g>
	</g>
	<g>
		<g>
			<g>
				<path fill="#FF5828" d="M193,84.36c0,0,7.145-7.597-0.298-14.44c0,0,8.66-13.69-6.758-21.877
					c-0.576-0.292-1.149-0.572-1.723-0.851c-35.318-11.431-82.515-0.981-82.515-0.981l0,0c-1.722,0.872-2.875,1.541-3.394,1.832
					c-15.217,8.554-6.758,21.877-6.758,21.877c-7.442,6.844-0.297,14.44-0.297,14.44c-11.021,9.972,0,16.075,0,16.075
					c-6.103,19.498,14.735,17.563,14.735,17.563c4.763,13.396,21.733,5.061,21.733,5.061h0.802v-10.41
					c-4.306-1.505-8.666-3.954-12.049-7.913c-3.007-3.519-5.291-9.539-6.819-16.849c-1.321,0.801-7.704,4.134-12.031-3.177
					c-4.68-7.907,1.864-16.421,10.625-11.657l0.055,0.485c1.542-0.844,5.658-4.02,4.765-13.587c0,0,15.033,4.912,19.796-11.014
					c0,0,9.823,13.396,19.944,0c0,0,3.423,15.777,18.754,10.121c0,0-0.63,8.385,4.398,13.893l0.001-0.005
					c8.781-4.657,15.325,3.857,10.645,11.764c-4.049,6.842-9.913,4.287-11.735,3.259c-1.529,7.274-3.808,13.262-6.803,16.768
					c-3.25,3.803-7.401,6.213-11.541,7.732v10.591c0,0,16.97,8.335,21.732-5.061c0,0,20.838,1.935,14.735-17.563
					C193,100.435,204.021,94.333,193,84.36z"/>
			</g>
			<g>
				<path fill="#060405" d="M210.878,163.627l-30.794-27.3c-6.763-6.217-18.161-11.362-23.13-13.676
					c0.008,0.039-3.007,8.915-14.044,8.915c-11.037,0-14.052-8.876-14.043-8.915c-5.728,2.667-16.515,7.122-25.857,16.59
					c-9.342,9.468-14.402,14.659-17.139,17.229c-5.868,5.512-10.859,9.457-17.853-0.856c-2.877-4.243-13.307-23.122-13.307-23.122
					l-20.832,12.4c0,0,10.487,18.77,20.517,33.997c10.03,15.229,27.945,15.998,38.202,5.732l6.863-6.488l-0.22-0.001v37.57h86.372
					v-40.158l25.266,13.723V163.627z"/>
			</g>
			<g>
				<g>
					<rect x="99.241" y="180.914" fill="#003D97" width="86.372" height="3.248"/>
				</g>
				<g>
					<polygon fill="#003D97" points="195.498,180.914 201.478,184.162 210.879,184.162 210.879,180.914 					"/>
				</g>
				<g>
					<rect x="99.241" y="207.635" fill="#003D97" width="86.372" height="3.248"/>
				</g>
				<g>
					<rect x="99.241" y="194.274" fill="#003D97" width="86.372" height="3.248"/>
				</g>
				<g>
					<path fill="#003D97" d="M96.52,180.914H55.852c0.916,1.185,1.881,2.269,2.891,3.248h34.342L96.52,180.914z"/>
				</g>
				<g>
					<path fill="#003D97" d="M47.205,167.553c0.662,1.077,1.334,2.162,2.013,3.248h161.662v-3.248H47.205z"/>
				</g>
				<g>
					<path fill="#003D97" d="M69.353,157.441c-0.438-0.553-0.882-1.158-1.335-1.827c-0.25-0.368-0.56-0.854-0.912-1.422H39.212
						c0.6,1.028,1.235,2.111,1.906,3.249H69.353z"/>
				</g>
				<g>
					<path fill="#003D97" d="M153.709,127.472c-1.292,1.256-3.024,2.472-5.336,3.248h24.108c-1.879-1.169-3.806-2.255-5.672-3.248
						H153.709z"/>
				</g>
				<g>
					<path fill="#003D97" d="M118.947,127.472c-1.744,0.95-3.574,2.028-5.438,3.248h23.937c-2.313-0.776-4.045-1.992-5.336-3.248
						H118.947z"/>
				</g>
				<g>
					<path fill="#003D97" d="M101.439,140.832c-1.133,1.149-2.201,2.232-3.201,3.248h90.591l-3.664-3.248H101.439z"/>
				</g>
				<g>
					<path fill="#003D97" d="M61.202,144.08c-0.625-1.1-1.242-2.193-1.836-3.248H40.7l-5.456,3.248H61.202z"/>
				</g>
				<g>
					<path fill="#003D97" d="M88.219,154.192c-0.927,0.917-1.706,1.673-2.35,2.278c-0.351,0.33-0.699,0.654-1.045,0.971h119.075
						l-3.664-3.249H88.219z"/>
				</g>
			</g>
			<g>
				<path fill="#003D97" d="M97.776,47.852c0,0,52.005-14.153,90.408,1.088c0,0-2.637-22.261-5.291-26.33
					c-2.653-4.068-25.106-14.859-40.856-13.444s-35.814,10.967-38.165,14.505S97.776,47.852,97.776,47.852z"/>
			</g>
			<g>
				<path fill="#FF5828" d="M127.083,35.79h31.794c0,0-0.884-5.33-2.934-6.784c-2.049-1.453-11.441-3.876-12.963-3.876
					s-11.698,3.069-12.99,4.199C128.698,30.46,127.083,35.79,127.083,35.79z"/>
			</g>
			<g>
				<path fill="#FF5828" d="M130.024,84.524c-0.356,2.104-3.998,3.242-8.134,2.542c-4.135-0.701-7.199-2.974-6.843-5.079
					c0.357-2.104,3.998-3.243,8.134-2.542C127.317,80.146,130.381,82.419,130.024,84.524z M154.526,84.524
					c0.356,2.104,3.998,3.242,8.133,2.542c4.136-0.701,7.199-2.974,6.843-5.079s-3.998-3.243-8.133-2.542
					C157.233,80.146,154.17,82.419,154.526,84.524z"/>
			</g>
		</g>
		<g>
			<g>
				<g>
					<path fill="#060405" d="M180.01,90.365c-2.844,0-4.962-1.72-5.063-1.803c-0.426-0.352-0.485-0.982-0.133-1.408
						c0.352-0.425,0.979-0.484,1.405-0.136l0,0c0.021,0.017,2.141,1.716,4.656,1.271c1.822-0.325,3.462-1.701,4.876-4.09
						c2.455-4.147,1.427-8.104-0.567-10.026c-1.94-1.868-4.708-1.95-7.403-0.217c-0.466,0.299-1.083,0.163-1.382-0.3
						c-0.298-0.465-0.164-1.083,0.3-1.382c3.476-2.235,7.259-2.059,9.873,0.459c2.542,2.45,3.909,7.402,0.9,12.484
						c-1.729,2.923-3.84,4.62-6.271,5.044C180.792,90.334,180.394,90.365,180.01,90.365z"/>
				</g>
				<g>
					<path fill="#060405" d="M181.468,79.503c-0.479,0-0.903-0.345-0.985-0.833c-0.118-0.699-0.404-1.2-0.873-1.532
						c-0.982-0.694-2.458-0.462-2.473-0.459c-0.479,0.08-0.938-0.183-1.107-0.631c-0.17-0.449,0.002-0.955,0.411-1.206
						c1.787-1.101,3.48-1.391,5.035-0.866c2.561,0.865,3.665,3.659,3.71,3.777c0.199,0.515-0.058,1.094-0.573,1.293
						c-0.512,0.198-1.091-0.056-1.292-0.57l0,0c-0.007-0.018-0.596-1.48-1.792-2.265c0.473,0.572,0.783,1.283,0.925,2.125
						c0.092,0.544-0.275,1.061-0.819,1.152C181.58,79.499,181.523,79.503,181.468,79.503z"/>
				</g>
			</g>
			<g>
				<g>
					<path fill="#060405" d="M104.229,90.365c-0.385,0-0.782-0.031-1.19-0.103c-2.432-0.424-4.542-2.122-6.271-5.044
						c-3.008-5.083-1.642-10.035,0.9-12.484c2.613-2.518,6.396-2.694,9.873-0.459c0.464,0.299,0.599,0.917,0.3,1.382
						c-0.299,0.463-0.917,0.599-1.382,0.3c-2.695-1.733-5.462-1.653-7.403,0.217c-1.994,1.921-3.022,5.878-0.567,10.026
						c1.414,2.389,3.055,3.765,4.876,4.09c2.51,0.445,4.635-1.254,4.656-1.271c0.427-0.348,1.057-0.286,1.406,0.14
						c0.35,0.426,0.29,1.053-0.134,1.403C109.191,88.645,107.073,90.365,104.229,90.365z"/>
				</g>
				<g>
					<path fill="#060405" d="M102.771,79.503c-0.055,0-0.111-0.004-0.167-0.014c-0.544-0.092-0.912-0.608-0.819-1.152
						c0.142-0.842,0.452-1.552,0.924-2.124c-1.191,0.783-1.784,2.243-1.79,2.26c-0.199,0.516-0.779,0.77-1.293,0.573
						c-0.515-0.199-0.772-0.778-0.573-1.293c0.046-0.119,1.149-2.913,3.71-3.777c1.554-0.524,3.248-0.233,5.035,0.866
						c0.409,0.251,0.581,0.757,0.411,1.206s-0.634,0.709-1.107,0.631c-0.295-0.05-2.939-0.414-3.346,1.991
						C103.673,79.158,103.25,79.503,102.771,79.503z"/>
				</g>
			</g>
			<g>
				<path fill="#060405" d="M142.275,115.923c-5.278,0-18.43-1.027-26.558-10.538c-4.619-5.405-7.889-16.89-8.971-31.511
					c-0.034-0.457,0.247-0.878,0.682-1.023c0.223-0.079,5.646-2.121,4.648-12.808c-0.031-0.334,0.108-0.663,0.371-0.873
					c0.262-0.211,0.616-0.273,0.934-0.171c0.061,0.02,6.156,1.939,11.495-0.864c3.304-1.735,5.671-4.927,7.034-9.485
					c0.108-0.363,0.414-0.633,0.787-0.698c0.375-0.063,0.752,0.088,0.977,0.393c0.041,0.055,4.125,5.514,9.423,5.546
					c3.144-0.024,6.118-1.851,8.917-5.557c0.235-0.311,0.631-0.457,1.012-0.373c0.381,0.083,0.679,0.381,0.763,0.763
					c0.014,0.065,1.494,6.564,6.527,9.317c2.972,1.626,6.641,1.651,10.904,0.079c0.319-0.119,0.676-0.066,0.948,0.14
					c0.271,0.205,0.42,0.534,0.396,0.873c-0.006,0.088-0.586,8.889,4.918,13.932c0.226,0.207,0.345,0.506,0.322,0.811
					c-1.082,14.62-4.352,26.105-8.971,31.511C160.705,114.896,147.553,115.923,142.275,115.923z M108.793,74.414
					c1.1,13.875,4.167,24.666,8.445,29.672c7.8,9.128,21.136,9.837,25.037,9.837s17.237-0.709,25.037-9.837
					c4.3-5.032,7.377-15.909,8.461-29.887c-4.519-4.431-5.179-10.865-5.232-13.742c-4.269,1.292-8.029,1.069-11.198-0.669
					c-4.057-2.226-6.07-6.354-6.942-8.765c-2.879,3.255-6,4.908-9.327,4.867c-4.481-0.032-8.057-3.1-9.82-4.966
					c-1.59,4.208-4.096,7.228-7.466,8.992c-4.5,2.354-9.301,1.82-11.62,1.341C114.597,70.282,110.516,73.475,108.793,74.414z"/>
			</g>
			<g>
				<g>
					<circle fill="#060405" cx="128.528" cy="73.524" r="2.68"/>
				</g>
			</g>
			<g>
				<g>
					<circle fill="#060405" cx="156.532" cy="73.524" r="2.68"/>
				</g>
			</g>
			<g>
				<path fill="#060405" d="M134.015,69.355c-0.16,0-0.322-0.038-0.473-0.119c-5.206-2.8-9.798-0.138-9.991-0.023
					c-0.474,0.281-1.088,0.127-1.37-0.345c-0.283-0.473-0.132-1.084,0.34-1.369c0.232-0.139,5.736-3.376,11.968-0.024
					c0.486,0.262,0.668,0.868,0.407,1.354C134.716,69.165,134.372,69.355,134.015,69.355z"/>
			</g>
			<g>
				<path fill="#060405" d="M151.044,69.355c-0.356,0-0.701-0.19-0.882-0.526c-0.261-0.486-0.079-1.093,0.407-1.354
					c6.233-3.352,11.737-0.115,11.968,0.024c0.473,0.285,0.625,0.9,0.34,1.373c-0.285,0.472-0.897,0.625-1.371,0.341
					c-0.204-0.121-4.792-2.772-9.99,0.023C151.366,69.317,151.204,69.355,151.044,69.355z"/>
			</g>
			<g>
				<path fill="#060405" d="M142.959,84.851c-0.01,0-0.02,0-0.029,0c-2.211-0.014-3.821-1.709-3.889-1.781
					c-0.377-0.404-0.356-1.037,0.047-1.414c0.402-0.376,1.033-0.355,1.41,0.044c0.014,0.015,1.113,1.149,2.456,1.151
					c0.001,0,0.002,0,0.003,0c0.752,0,1.455-0.351,2.148-1.074c0.382-0.398,1.016-0.411,1.414-0.029
					c0.398,0.382,0.412,1.016,0.029,1.414C145.475,84.283,144.267,84.851,142.959,84.851z"/>
			</g>
			<g>
				<path fill="#060405" d="M142.275,95.977c-5.396,0-8.062-4.549-8.718-6.955c-0.145-0.533,0.169-1.083,0.702-1.228
					c0.533-0.145,1.081,0.168,1.227,0.699l0,0c0.063,0.224,1.588,5.484,6.789,5.484c5.181,0,6.564-5.238,6.621-5.46
					c0.135-0.534,0.674-0.862,1.212-0.727c0.535,0.133,0.861,0.673,0.729,1.208C150.242,91.412,147.686,95.977,142.275,95.977z"/>
			</g>
			<g>
				<g>
					<path fill="#060405" d="M128.274,123.651c-0.552,0-1-0.448-1-1v-9.998c0-0.552,0.448-1,1-1s1,0.448,1,1v9.998
						C129.274,123.204,128.826,123.651,128.274,123.651z"/>
				</g>
				<g>
					<path fill="#060405" d="M156.276,123.651c-0.552,0-1-0.448-1-1v-9.998c0-0.552,0.448-1,1-1s1,0.448,1,1v9.998
						C157.276,123.204,156.829,123.651,156.276,123.651z"/>
				</g>
			</g>
			<g>
				<path fill="#060405" d="M167.191,126.625c-5.583,0-10.811-2.527-11.1-2.668c-0.496-0.243-0.7-0.842-0.457-1.337
					c0.243-0.497,0.843-0.699,1.338-0.458c0.085,0.042,8.65,4.171,14.877,1.636c2.554-1.041,4.396-3.104,5.472-6.133
					c0.153-0.43,0.577-0.701,1.034-0.661c0.087,0.006,8.939,0.755,12.866-4.108c2.214-2.742,2.491-6.833,0.823-12.161
					c-0.142-0.453,0.055-0.944,0.47-1.174c0.037-0.021,3.926-2.236,4.345-5.939c0.301-2.66-1.224-5.526-4.532-8.519
					c-0.199-0.18-0.316-0.433-0.328-0.7s0.086-0.529,0.269-0.725c0.03-0.032,2.961-3.219,2.813-7.082
					c-0.082-2.15-1.111-4.149-3.058-5.939c-0.355-0.327-0.426-0.861-0.169-1.27c0.034-0.055,3.406-5.517,1.862-11.305
					c-0.986-3.695-3.76-6.775-8.243-9.156c-0.543-0.275-1.101-0.552-1.658-0.824c-0.497-0.242-0.703-0.84-0.461-1.337
					c0.24-0.497,0.837-0.706,1.337-0.461c0.566,0.275,1.134,0.558,1.703,0.846c5.019,2.665,8.129,6.173,9.26,10.436
					c1.431,5.394-0.748,10.348-1.703,12.154c1.988,2.033,3.04,4.316,3.129,6.797c0.127,3.492-1.704,6.404-2.714,7.735
					c3.333,3.237,4.839,6.46,4.478,9.591c-0.425,3.68-3.316,6.077-4.671,7.01c1.623,5.659,1.152,10.126-1.402,13.285
					c-3.908,4.833-11.4,4.974-13.835,4.882c-1.31,3.209-3.439,5.432-6.339,6.612C170.864,126.356,169.008,126.625,167.191,126.625z"
					/>
			</g>
			<g>
				<path fill="#060405" d="M188.185,49.939c-0.125,0-0.25-0.023-0.369-0.07c-37.646-14.941-89.261-1.193-89.777-1.053
					c-0.331,0.088-0.686,0.004-0.938-0.228c-0.253-0.232-0.37-0.578-0.308-0.916c0.387-2.133,3.852-20.95,6.248-24.555
					C105.567,19.313,126.03,9.6,141.948,8.17c15.876-1.424,38.822,9.354,41.783,13.894c2.704,4.146,5.173,24.456,5.446,26.758
					c0.042,0.35-0.104,0.696-0.384,0.911C188.617,49.869,188.401,49.939,188.185,49.939z M145.773,40.921
					c13.54,0,28.125,1.605,41.215,6.486c-0.894-7.034-3.026-21.328-4.932-24.251c-2.357-3.615-24.265-14.405-39.93-12.994
					c-15.664,1.407-35.304,10.875-37.421,14.063c-1.689,2.542-4.432,15.756-5.662,22.276
					C104.486,45.179,123.738,40.921,145.773,40.921z"/>
			</g>
			<g>
				<path fill="#060405" d="M117.066,126.625c-1.818,0-3.673-0.268-5.407-0.973c-2.9-1.18-5.03-3.402-6.34-6.612
					c-2.429,0.086-9.927-0.049-13.835-4.882c-2.555-3.159-3.025-7.626-1.402-13.285c-1.354-0.933-4.246-3.33-4.671-7.01
					c-0.361-3.13,1.145-6.354,4.478-9.591c-1.011-1.331-2.841-4.243-2.715-7.735c0.09-2.481,1.142-4.764,3.129-6.797
					c-0.926-1.76-2.994-6.509-1.662-11.805c1.089-4.33,4.178-7.952,9.181-10.764l0.249-0.14c0.586-0.332,1.677-0.95,3.184-1.712
					c0.494-0.25,1.095-0.052,1.344,0.44c0.25,0.493,0.052,1.095-0.44,1.344c-1.465,0.742-2.53,1.344-3.102,1.668l-0.254,0.144
					c-4.504,2.532-7.271,5.731-8.221,9.508c-1.442,5.734,1.785,10.909,1.817,10.96c0.259,0.409,0.189,0.944-0.167,1.272
					c-1.951,1.794-2.98,3.798-3.058,5.954c-0.141,3.879,2.783,7.035,2.813,7.066c0.184,0.196,0.281,0.457,0.271,0.725
					c-0.011,0.269-0.129,0.521-0.328,0.702c-3.313,2.998-4.837,5.869-4.53,8.531c0.429,3.719,4.305,5.905,4.344,5.927
					c0.416,0.23,0.612,0.721,0.47,1.174c-1.667,5.327-1.391,9.419,0.823,12.161c3.926,4.862,12.776,4.116,12.865,4.108
					c0.462-0.04,0.881,0.23,1.034,0.661c1.077,3.029,2.918,5.092,5.473,6.133c6.226,2.538,14.792-1.594,14.877-1.636
					c0.494-0.243,1.095-0.039,1.338,0.458c0.243,0.496,0.039,1.094-0.457,1.337C127.877,124.098,122.648,126.625,117.066,126.625z"
					/>
			</g>
			<g>
				<path fill="#060405" d="M158.877,36.79h-31.794c-0.316,0-0.614-0.15-0.803-0.404c-0.188-0.254-0.246-0.583-0.154-0.886
					c0.284-0.936,1.771-5.667,3.206-6.923c1.541-1.348,11.97-4.447,13.649-4.447c1.779,0,11.367,2.518,13.542,4.061
					c2.322,1.647,3.244,6.848,3.341,7.436c0.048,0.29-0.034,0.586-0.224,0.81S159.171,36.79,158.877,36.79z M128.458,34.79h29.197
					c-0.443-1.88-1.274-4.248-2.289-4.968c-1.815-1.288-10.93-3.691-12.385-3.691c-1.376,0-11.279,3.03-12.332,3.952
					C130.047,30.608,129.125,32.844,128.458,34.79z"/>
			</g>
			<g>
				<g>
					<path fill="#060405" d="M42.368,119.4c-0.374,0-0.732-0.21-0.903-0.57c-0.293-0.615-7.182-15.102-8.5-18.704
						c-0.538-1.468-1.371-1.956-1.556-1.884c-0.091,0.047-0.479,0.737,0.004,2.652c1.252,4.965,1.783,13.459,1.805,13.818
						c0.027,0.445-0.243,0.854-0.664,1.003c-0.417,0.15-0.887,0.003-1.147-0.36c-0.086-0.121-8.673-12.108-10.197-14.004
						c-0.498-0.621-1.151-0.719-1.414-0.549c-0.237,0.155-0.273,0.74,0.208,1.657c1.663,3.17,8.05,15.192,8.05,15.192l-1.767,0.938
						c0,0-6.391-12.029-8.055-15.202c-1.138-2.169-0.504-3.622,0.468-4.259c1.229-0.806,2.978-0.389,4.069,0.969
						c1.088,1.355,5.49,7.45,8.167,11.172c-0.274-2.94-0.752-7.072-1.462-9.887c-1.007-3.993,0.776-4.877,1.347-5.053
						c1.5-0.465,3.194,0.844,4.023,3.108c1.287,3.516,8.357,18.382,8.428,18.532c0.237,0.499,0.025,1.095-0.473,1.333
						C42.659,119.369,42.512,119.4,42.368,119.4z"/>
				</g>
				<g>
					<path fill="#060405" d="M35.741,144.407c-0.344,0-0.678-0.177-0.864-0.495l-2.422-4.137
						c-2.646-2.128-10.042-8.137-11.804-13.179c-0.182-0.521,0.093-1.092,0.614-1.274c0.524-0.181,1.092,0.093,1.274,0.614
						c1.606,4.596,8.912,10.466,11.313,12.396c0.095,0.076,0.175,0.168,0.236,0.273l2.515,4.297
						c0.279,0.477,0.119,1.089-0.357,1.367C36.086,144.363,35.913,144.407,35.741,144.407z"/>
				</g>
				<g>
					<path fill="#060405" d="M51.65,134.937c-0.353,0-0.695-0.187-0.877-0.519l-2.749-4.994c-0.068-0.123-0.11-0.262-0.121-0.402
						c-0.263-3.335-1.566-7.182-2.016-7.713c-0.842-0.821-6.73-3.274-7.75-3.25l-0.33,0.09c-6.217,1.582-7.824,2.276-8.236,2.52
						c-0.012,0.143,0.012,0.443,0.263,0.737c0.397,0.465,1.838,1.429,6.605,0.353c0.444-0.1,0.896,0.11,1.106,0.512
						c0.06,0.111,1.544,2.832,4.595,2.621c0.555-0.047,1.027,0.381,1.063,0.933c0.036,0.551-0.382,1.027-0.933,1.063
						c-3.304,0.22-5.275-1.911-6.08-3.032c-5.049,1.005-7.147-0.151-8.019-1.329c-0.74-1-0.723-2.23-0.324-2.929
						c0.291-0.51,0.653-1.145,9.467-3.387l0.394-0.101c1.632-0.426,8.534,2.752,9.589,3.782c1.031,1.005,2.298,5.699,2.581,8.754
						l2.646,4.81c0.267,0.482,0.09,1.092-0.394,1.357C51.979,134.896,51.813,134.937,51.65,134.937z"/>
				</g>
				<g>
					<path fill="#060405" d="M34.382,131.962c-0.543,0.001-1.116-0.125-1.679-0.382c-2.517-1.15-10.37-8.278-11.166-9.695
						c-0.355-0.633-0.357-1.445-0.005-2.413c0.498-1.37,1.783-3.122,2.903-3.547c1.117-0.426,2.893,0.671,5.271,3.261
						c0.374,0.406,0.347,1.039-0.06,1.413c-0.407,0.373-1.039,0.347-1.413-0.06c-1.194-1.298-2.626-2.502-3.187-2.691
						c-0.371,0.247-1.148,1.144-1.559,2.112c-0.246,0.581-0.229,0.888-0.204,0.95c0.643,1.106,8.142,7.886,10.25,8.85
						c0.768,0.352,1.36,0.196,1.587-0.096c0.282-0.362,0.122-1.005-0.419-1.679c-1.869-2.326-3.46-4.08-3.476-4.098
						c-0.371-0.409-0.341-1.041,0.068-1.413c0.409-0.371,1.041-0.341,1.413,0.068c0.066,0.073,1.645,1.813,3.555,4.19
						c1.376,1.713,1.128,3.272,0.438,4.16C36.155,131.594,35.313,131.962,34.382,131.962z M24.96,117.826L24.96,117.826
						L24.96,117.826z"/>
				</g>
				<g>
					<path fill="#060405" d="M30.846,133.318c-0.71,0-1.619-0.306-2.828-0.939c-2.405-1.263-7.264-4.746-7.672-6.425
						c-0.271-1.114,0.098-2.35,0.939-3.147c0.788-0.746,1.859-0.988,2.938-0.666c0.529,0.159,0.829,0.716,0.67,1.246
						c-0.159,0.529-0.713,0.829-1.246,0.67c-0.389-0.119-0.722-0.05-0.986,0.201c-0.32,0.303-0.473,0.806-0.372,1.223
						c0.729,1.63,7.489,6.006,8.589,5.834c0.162-0.066,0.303-0.162,0.329-0.241c0.047-0.142-0.065-0.449-0.166-0.607
						c-0.294-0.462-0.166-1.08,0.293-1.38c0.458-0.301,1.07-0.18,1.375,0.276c0.079,0.118,0.763,1.188,0.404,2.315
						c-0.151,0.477-0.545,1.127-1.56,1.516C31.342,133.277,31.107,133.318,30.846,133.318z"/>
				</g>
			</g>
			<g>
				<path fill="#060405" d="M185.692,216.703H98.827c-0.552,0-1-0.447-1-1v-35.248l-5.176,4.895
					c-5.178,5.182-12.348,7.742-19.645,6.997c-8.002-0.813-15.133-5.396-20.079-12.906c-9.935-15.085-20.45-33.872-20.555-34.06
					c-0.264-0.473-0.104-1.07,0.361-1.348l20.832-12.4c0.232-0.139,0.51-0.177,0.773-0.106c0.261,0.071,0.483,0.245,0.614,0.481
					c0.104,0.189,10.439,18.889,13.259,23.045c2.543,3.75,4.891,5.695,7.179,5.949c2.948,0.33,5.891-2.188,9.162-5.261
					c1.655-1.554,5.029-4.978,8.935-8.94c2.545-2.582,5.359-5.437,8.18-8.266c8.896-8.921,18.622-13.356,24.433-16.006
					c0.608-0.277,1.179-0.538,1.709-0.785c0.345-0.158,0.75-0.111,1.046,0.125c0.168,0.134,0.285,0.316,0.34,0.516
					c0.126,0.369,2.93,8.18,13.08,8.18c10.009,0,12.958-7.839,13.08-8.182c0.055-0.197,0.169-0.376,0.335-0.51
					c0.297-0.24,0.707-0.29,1.05-0.129l0.717,0.333c4.89,2.27,15.063,6.992,21.677,12.635l31.772,28.166
					c0.215,0.189,0.337,0.463,0.337,0.748v25.641c0,0.354-0.188,0.683-0.494,0.862c-0.307,0.181-0.683,0.185-0.994,0.011
					l-23.063-12.894v38.456C186.692,216.256,186.245,216.703,185.692,216.703z M99.827,214.703h84.866v-39.161
					c0-0.354,0.188-0.683,0.494-0.862c0.306-0.18,0.685-0.184,0.994-0.011l23.064,12.894v-23.485l-31.421-27.855
					c-6.294-5.37-16.096-9.957-20.984-12.227c-0.457,0.933-1.167,2.028-1.757,2.768c-2.111,2.647-6.047,5.802-12.806,5.802
					c-6.711,0-10.637-3.116-12.748-5.729c-0.675-0.836-1.375-1.93-1.819-2.842c-0.252,0.116-0.512,0.234-0.779,0.355
					c-6.056,2.761-15.207,6.934-23.847,15.598c-2.818,2.826-5.629,5.678-8.171,8.258c-3.921,3.979-7.308,7.414-8.991,8.994
					c-3.638,3.416-6.954,6.205-10.751,5.791c-2.905-0.322-5.723-2.551-8.614-6.815c-2.542-3.747-10.719-18.443-12.854-22.296
					l-19.107,11.373c2.164,3.832,11.309,19.89,20.002,33.089c4.609,6.997,11.218,11.265,18.611,12.017
					c6.697,0.68,13.277-1.667,18.048-6.441l6.884-6.51c0.292-0.274,0.718-0.351,1.083-0.191c0.367,0.157,0.604,0.519,0.604,0.918
					V214.703z"/>
			</g>
		</g>
	</g>
	<g>
		<g>
			<polygon fill="#003D97" points="177.215,134.437 177.215,134.437 177.215,134.437 			"/>
		</g>
	</g>
</g>
</svg>
